<svg id="Layer_1" data-name="Layer 1" xmlns="http://www.w3.org/2000/svg" viewBox="0 0 381.08 381.36"><defs><style>.cls-1{fill:#fff;}.cls-2{fill:#9b0000;}</style></defs><path class="cls-1" d="M488.36,430.77v-20.4a3.58,3.58,0,0,1-.27-.82c-.34-4.14-.5-8.3-1-12.41a187.84,187.84,0,0,0-4.79-25.09,167.92,167.92,0,0,0-8-23.73c-2.39-5.52-4.87-11-7.62-16.38a158.89,158.89,0,0,0-13.95-22.54c-2.8-3.76-5.61-7.51-8.55-11.15-2-2.47-4.17-4.78-6.34-7.1s-4.59-5-7.07-7.29c-4.1-3.79-8.31-7.46-12.52-11.12a138.67,138.67,0,0,0-17.05-12.47c-4.31-2.72-8.76-5.25-13.2-7.78a183,183,0,0,0-41.18-16.3c-4.83-1.19-9.68-2.33-14.56-3.3-3.38-.67-6.83-1.07-10.26-1.51-3.6-.45-7.2-.82-10.81-1.18-.87-.09-1.76,0-2.64,0a5.79,5.79,0,0,1-1.05-.27H288.08a3.58,3.58,0,0,1-.82.27c-4.48.41-9,.76-13.45,1.21a158,158,0,0,0-22.21,4.08,152.36,152.36,0,0,0-23,7.39c-6.25,2.66-12.52,5.33-18.59,8.38-5.11,2.58-10,5.58-14.89,8.63-4.25,2.68-8.37,5.58-12.4,8.59-3.35,2.5-6.58,5.17-9.69,8-4.32,3.88-8.63,7.79-12.65,12s-7.69,8.43-11.22,12.89c-3.88,4.9-7.6,10-11.05,15.16-3.08,4.64-5.74,9.57-8.52,14.41a150.93,150.93,0,0,0-8.9,19,170.42,170.42,0,0,0-7.36,22.57c-1.11,4.53-2.17,9.08-3.07,13.66-.66,3.39-1.11,6.83-1.48,10.27-.5,4.64-1,9.28-1.18,13.94q-.37,9.63-.23,19.27a97.51,97.51,0,0,0,1,12.18c.93,6.56,2.08,13.11,3.29,19.63a134.73,134.73,0,0,0,5.79,21q2.88,8,6.25,15.88a170.22,170.22,0,0,0,17,30.33c3,4.25,6.14,8.39,9.37,12.45,2.54,3.18,5.26,6.23,8,9.22,2.92,3.17,5.84,6.36,9,9.24,4.47,4.06,9.08,8,13.84,11.71,4.61,3.6,9.41,7,14.3,10.21,4,2.62,8.13,5,12.3,7.22,3.76,2.06,7.6,4,11.52,5.75,4.88,2.16,9.8,4.27,14.85,6,6.6,2.22,13.3,4.19,20,5.94,4.7,1.22,9.52,2,14.32,2.76,4,.64,8,1,12,1.46,2.2.23,4.42.32,6.62.5a3.58,3.58,0,0,1,.82.27H308a3.67,3.67,0,0,1,.81-.27c4.14-.34,8.3-.48,12.41-1a195.85,195.85,0,0,0,30.49-6.34,192.1,192.1,0,0,0,23.3-8.54A184.19,184.19,0,0,0,399.43,582a168.48,168.48,0,0,0,17.37-12.4c3.47-2.88,6.91-5.79,10.24-8.83,3.18-2.91,6.32-5.87,9.24-9,3.59-3.89,7.12-7.86,10.36-12,4.11-5.31,8-10.79,11.79-16.36a136.73,136.73,0,0,0,7.1-12.1c2.54-4.76,5-9.58,7.15-14.51A153,153,0,0,0,481.12,473c1.4-5.46,2.76-10.94,4-16.46.69-3.18,1.12-6.42,1.53-9.66.55-4.26,1-8.53,1.44-12.81.09-.79,0-1.59,0-2.39A4.57,4.57,0,0,1,488.36,430.77ZM367.25,474c-7.2,1.54-13.55-2.38-15.24-9.28-.95-3.85-1.68-7.76-2.94-11.5a49.77,49.77,0,0,0-8.26-14.9,53.3,53.3,0,0,0-14.31-12.8,51.68,51.68,0,0,0-16.75-6.74,61.84,61.84,0,0,0-10-1.2,53.68,53.68,0,0,0-36.72,12.95A54.28,54.28,0,0,0,250.51,446a54.92,54.92,0,0,0-5.84,17.07,51.31,51.31,0,0,0-.64,12.11,54.13,54.13,0,0,0,4.28,17.8,55.27,55.27,0,0,0,7.32,12.35,52,52,0,0,0,9.1,9A56.23,56.23,0,0,0,275,520.76a55.11,55.11,0,0,0,14.8,4.56,50,50,0,0,0,11.38.65,55,55,0,0,0,31.52-12.41,50.12,50.12,0,0,0,12.91-15.78,108.62,108.62,0,0,0,4.49-10.48,12.66,12.66,0,0,1,10.65-8.14,12.85,12.85,0,0,1,9.66,3.17,12.12,12.12,0,0,1,3.82,7c.82,4-.82,7.58-2.17,11.17a71.37,71.37,0,0,1-9.36,17.28c-1.88,2.58-3.94,5-6,7.43-1.49,1.7-3.16,3.23-4.77,4.81a70,70,0,0,1-12.5,9.5,73.18,73.18,0,0,1-20.84,8.85A76,76,0,0,1,308,550.48,102.81,102.81,0,0,1,294,551a66,66,0,0,1-17.17-2.83A111.84,111.84,0,0,1,266,544.29a58.56,58.56,0,0,1-12.34-6.89q-5.14-3.89-10-8.13a67.35,67.35,0,0,1-12.19-14.57,72.94,72.94,0,0,1-10.58-25.54c-.74-3.78-1.29-7.6-1.65-11.43-.3-3.17-.25-6.37-.27-9.55q-.06-8.3,0-16.59c0-5.95.14-11.89.23-17.84.07-5.46.16-10.93.24-16.39.08-5.91.15-11.82.24-17.72.07-4.87.17-9.73.23-14.6.09-6.38.16-12.77.25-19.15.07-5.59.16-11.17.24-16.76.08-5.79.14-11.57.24-17.36.05-2.66,0-5.34.27-8a11.65,11.65,0,0,1,5.42-9.14,12.39,12.39,0,0,1,14.23.18,10.65,10.65,0,0,1,5.07,8.25c.22,2.92,0,5.86,0,8.79v6.48c0,2.84,0,5.68,0,8.52q-.09,8.91-.24,17.83c-.07,5.23-.16,10.46-.23,15.68-.09,6.07-.16,12.13-.25,18.2-.06,4.38-.15,8.77-.23,13.15,0,.39,0,.77,0,1.25,1.95-.91,2.08-2.56,2.32-4.17.44-3.07.95-6.14,1.4-9.21s.8-6,1.24-9,.9-5.74,1.33-8.62c.37-2.41.7-4.82,1.06-7.24.43-2.91.87-5.83,1.3-8.75.37-2.45.73-4.9,1.1-7.35q.64-4.37,1.31-8.75.54-3.67,1.09-7.35c.43-2.91.88-5.83,1.31-8.74.37-2.41.72-4.83,1.08-7.24s.75-5,1.11-7.46c.44-2.92.86-5.84,1.29-8.76.37-2.45.74-4.89,1.13-7.34a32.4,32.4,0,0,1,.73-4.05,12.32,12.32,0,0,1,13.23-8.81c6.39.61,11.38,6,11.09,12.1-.17,3.65-.78,7.29-1.25,10.92-.32,2.45-.73,4.9-1.1,7.35q-.64,4.36-1.3,8.75-.54,3.67-1.1,7.35c-.43,2.91-.87,5.83-1.3,8.75-.37,2.45-.74,4.89-1.09,7.35s-.69,4.82-1.05,7.24q-.67,4.49-1.36,9c-.52,3.46-1.06,6.92-1.59,10.38-.36,2.33-.7,4.66-1,7l-1.4,9.7c1.45-.36,2.88-.77,4.33-1.06,3.39-.66,6.77-1.35,10.18-1.84a62.43,62.43,0,0,1,7.11-.49,57,57,0,0,1,8.06,0c4.28.49,8.55,1.2,12.78,2.06A67.85,67.85,0,0,1,334,401a69.08,69.08,0,0,1,14.81,9.83c2.67,2.38,5.37,4.76,7.81,7.37A73.17,73.17,0,0,1,367,432.24,76.55,76.55,0,0,1,374,448.55c1.3,4.5,2.54,9,2.63,13.74A12.18,12.18,0,0,1,367.25,474Z" transform="translate(-107.28 -229.89)"/><path class="cls-2" d="M374.25,489.35c.82,4-.82,7.58-2.17,11.17a71.37,71.37,0,0,1-9.36,17.28c-1.88,2.58-3.94,5-6,7.43-1.49,1.7-3.16,3.23-4.77,4.81a70,70,0,0,1-12.5,9.5,73.18,73.18,0,0,1-20.84,8.85A76,76,0,0,1,308,550.48,102.81,102.81,0,0,1,294,551a66,66,0,0,1-17.17-2.83A111.84,111.84,0,0,1,266,544.29a58.56,58.56,0,0,1-12.34-6.89q-5.14-3.89-10-8.13a67.35,67.35,0,0,1-12.19-14.57,72.94,72.94,0,0,1-10.58-25.54c-.74-3.78-1.29-7.6-1.65-11.43-.3-3.17-.25-6.37-.27-9.55q-.06-8.3,0-16.59c0-5.95.14-11.89.23-17.84.07-5.46.16-10.93.24-16.39.08-5.91.15-11.82.24-17.72.07-4.87.17-9.73.23-14.6.09-6.38.16-12.77.25-19.15.07-5.59.16-11.17.24-16.76.08-5.79.14-11.57.24-17.36.05-2.66,0-5.34.27-8a11.65,11.65,0,0,1,5.42-9.14,12.39,12.39,0,0,1,14.23.18,10.65,10.65,0,0,1,5.07,8.25c.22,2.92,0,5.86,0,8.79v6.48c0,2.84,0,5.68,0,8.52q-.09,8.91-.24,17.83c-.07,5.23-.16,10.46-.23,15.68-.09,6.07-.16,12.13-.25,18.2-.06,4.38-.15,8.77-.23,13.15,0,.39,0,.77,0,1.25,1.95-.91,2.08-2.56,2.32-4.17.44-3.07.95-6.14,1.4-9.21s.8-6,1.24-9,.9-5.74,1.33-8.62c.37-2.41.7-4.82,1.06-7.24.43-2.91.87-5.83,1.3-8.75.37-2.45.73-4.9,1.1-7.35q.64-4.37,1.31-8.75.54-3.67,1.09-7.35c.43-2.91.88-5.83,1.31-8.74.37-2.41.72-4.83,1.08-7.24s.75-5,1.11-7.46c.44-2.92.86-5.84,1.29-8.76.37-2.45.74-4.89,1.13-7.34a32.4,32.4,0,0,1,.73-4.05,12.32,12.32,0,0,1,13.23-8.81c6.39.61,11.38,6,11.09,12.1-.17,3.65-.78,7.29-1.25,10.92-.32,2.45-.73,4.9-1.1,7.35q-.64,4.36-1.3,8.75-.54,3.67-1.1,7.35c-.43,2.91-.87,5.83-1.3,8.75-.37,2.45-.74,4.89-1.09,7.35s-.69,4.82-1.05,7.24q-.67,4.49-1.36,9c-.52,3.46-1.06,6.92-1.59,10.38-.36,2.33-.7,4.66-1,7l-1.4,9.7c1.45-.36,2.88-.77,4.33-1.06,3.39-.66,6.77-1.35,10.18-1.84a62.43,62.43,0,0,1,7.11-.49,57,57,0,0,1,8.06,0c4.28.49,8.55,1.2,12.78,2.06A67.85,67.85,0,0,1,334,401a69.08,69.08,0,0,1,14.81,9.83c2.67,2.38,5.37,4.76,7.81,7.37A73.17,73.17,0,0,1,367,432.24,76.55,76.55,0,0,1,374,448.55c1.3,4.5,2.54,9,2.63,13.74A12.18,12.18,0,0,1,367.25,474c-7.2,1.54-13.55-2.38-15.24-9.28-.95-3.85-1.68-7.76-2.94-11.5a49.77,49.77,0,0,0-8.26-14.9,53.3,53.3,0,0,0-14.31-12.8,51.68,51.68,0,0,0-16.75-6.74,61.84,61.84,0,0,0-10-1.2,53.68,53.68,0,0,0-36.72,12.95A54.28,54.28,0,0,0,250.51,446a54.92,54.92,0,0,0-5.84,17.07,51.31,51.31,0,0,0-.64,12.11,54.13,54.13,0,0,0,4.28,17.8,55.27,55.27,0,0,0,7.32,12.35,52,52,0,0,0,9.1,9A56.23,56.23,0,0,0,275,520.76a55.11,55.11,0,0,0,14.8,4.56,50,50,0,0,0,11.38.65,55,55,0,0,0,31.52-12.41,50.12,50.12,0,0,0,12.91-15.78,108.62,108.62,0,0,0,4.49-10.48,12.66,12.66,0,0,1,10.65-8.14,12.85,12.85,0,0,1,9.66,3.17A12.12,12.12,0,0,1,374.25,489.35Z" transform="translate(-107.28 -229.89)"/></svg>