<svg id="Layer_1" data-name="Layer 1" xmlns="http://www.w3.org/2000/svg" viewBox="0 0 381.08 381.36"><defs><style>.cls-1{fill:#fff;}.cls-2{fill:#900;}</style></defs><path class="cls-1" d="M488.36,430.77v-20.4a3.58,3.58,0,0,1-.27-.82c-.34-4.14-.5-8.3-1-12.41a187.84,187.84,0,0,0-4.79-25.09,167.92,167.92,0,0,0-8-23.73c-2.39-5.52-4.87-11-7.62-16.38a158.89,158.89,0,0,0-13.95-22.54c-2.8-3.76-5.61-7.51-8.55-11.15-2-2.47-4.17-4.78-6.34-7.1s-4.59-5-7.07-7.29c-4.1-3.79-8.31-7.46-12.52-11.12a138.67,138.67,0,0,0-17.05-12.47c-4.31-2.72-8.76-5.25-13.2-7.78a183,183,0,0,0-41.18-16.3c-4.83-1.19-9.68-2.33-14.56-3.3-3.38-.67-6.83-1.07-10.26-1.51-3.6-.45-7.2-.82-10.81-1.18-.87-.09-1.76,0-2.64,0a5.79,5.79,0,0,1-1.05-.27H288.08a3.58,3.58,0,0,1-.82.27c-4.48.41-9,.76-13.45,1.21a158,158,0,0,0-22.21,4.08,152.36,152.36,0,0,0-23,7.39c-6.25,2.66-12.52,5.33-18.59,8.38-5.11,2.58-10,5.58-14.89,8.63-4.25,2.68-8.37,5.58-12.4,8.59-3.35,2.5-6.58,5.17-9.69,8-4.32,3.88-8.63,7.79-12.65,12s-7.69,8.43-11.22,12.89c-3.88,4.9-7.6,10-11.05,15.16-3.08,4.64-5.74,9.57-8.52,14.41a150.93,150.93,0,0,0-8.9,19,170.42,170.42,0,0,0-7.36,22.57c-1.11,4.53-2.17,9.08-3.07,13.66-.66,3.39-1.11,6.83-1.48,10.27-.5,4.64-1,9.28-1.18,13.94q-.37,9.63-.23,19.27a97.51,97.51,0,0,0,1,12.18c.93,6.56,2.08,13.11,3.29,19.63a134.73,134.73,0,0,0,5.79,21q2.88,8,6.25,15.88a170.22,170.22,0,0,0,17,30.33c3,4.25,6.14,8.39,9.37,12.45,2.54,3.18,5.26,6.23,8,9.22,2.92,3.17,5.84,6.36,9,9.24,4.47,4.06,9.08,8,13.84,11.71,4.61,3.6,9.41,7,14.3,10.21,4,2.62,8.13,5,12.3,7.22,3.76,2.06,7.6,4,11.52,5.75,4.88,2.16,9.8,4.27,14.85,6,6.6,2.22,13.3,4.19,20,5.94,4.7,1.22,9.52,2,14.32,2.76,4,.64,8,1,12,1.46,2.2.23,4.42.32,6.62.5a3.58,3.58,0,0,1,.82.27H308a3.67,3.67,0,0,1,.81-.27c4.14-.34,8.3-.48,12.41-1a195.85,195.85,0,0,0,30.49-6.34,192.1,192.1,0,0,0,23.3-8.54A184.19,184.19,0,0,0,399.43,582a168.48,168.48,0,0,0,17.37-12.4c3.47-2.88,6.91-5.79,10.24-8.83,3.18-2.91,6.32-5.87,9.24-9,3.59-3.89,7.12-7.86,10.36-12,4.11-5.31,8-10.79,11.79-16.36a136.73,136.73,0,0,0,7.1-12.1c2.54-4.76,5-9.58,7.15-14.51A153,153,0,0,0,481.12,473c1.4-5.46,2.76-10.94,4-16.46.69-3.18,1.12-6.42,1.53-9.66.55-4.26,1-8.53,1.44-12.81.09-.79,0-1.59,0-2.39A4.57,4.57,0,0,1,488.36,430.77ZM208.72,501.15a12.17,12.17,0,0,1,3.41-11.85q23.48-23.49,46.95-47a12.53,12.53,0,1,1,17.61,17.82q-23.52,23.44-47,47a12.54,12.54,0,0,1-21-6Zm30.35,32.15A12.47,12.47,0,0,1,230.21,512q23.68-23.73,47.4-47.43a11.86,11.86,0,0,1,7.57-3.42,12.49,12.49,0,0,1,10,3.47,11.6,11.6,0,0,1,3.49,6.8c.79,4.82-1,8.68-4.31,12q-23,22.93-45.9,45.89A12.11,12.11,0,0,1,239.07,533.3Zm96.29-7.43c-4.24,6.12-13.13,7.14-18.32,2.4-4.44-4.06-8.63-8.41-12.93-12.64a4.62,4.62,0,0,1-.42-.53l-2.27,2.09c1,1,1.94,1.87,2.85,2.81a12.49,12.49,0,0,1-7.52,21,12.6,12.6,0,0,1-11.28-4.41c-.45-.5-1-1-1.44-1.44,0,0-.12-.09-.58-.54a4.37,4.37,0,0,1-.63,1.17c-3.42,3.47-6.88,6.92-10.33,10.37a12.77,12.77,0,0,1-16.36,1.5,12.42,12.42,0,0,1-3.25-17,15.47,15.47,0,0,1,2-2.48q19.91-20,39.84-39.89a12.58,12.58,0,0,1,15.66-1.49,15.89,15.89,0,0,1,2.39,1.93q10.55,10.5,21,21A12.69,12.69,0,0,1,335.36,525.87Zm20-7a12,12,0,0,1-10.51-3.49c-10.47-10.51-21-21-31.43-31.51a11.58,11.58,0,0,1-3.11-10.12,11.8,11.8,0,0,1,5.14-8.54,12.2,12.2,0,0,1,9.06-2.12,13.15,13.15,0,0,1,7.63,4.12q15,15.15,30.18,30.2a12.49,12.49,0,0,1,3.79,9.75C366.22,513,361.52,518,355.34,518.84Zm87.21-142.07a82.6,82.6,0,0,1-2.81,15.88,80.09,80.09,0,0,1-5.31,13.83,66.69,66.69,0,0,1-7.79,12.5c-2.36,2.92-4.92,5.69-7.47,8.46-2.35,2.55-4.81,5-7.22,7.49l-7,7.22-7.15,7.4q-3.63,3.74-7.24,7.48c-2.3,2.38-4.61,4.75-6.89,7.14-1.84,1.93-3.66,3.89-5.53,5.88.26.26.55.57.84.88,3.2,3.28,6.5,6.48,9.58,9.88a12,12,0,0,1,3,10.06,12.46,12.46,0,0,1-13.61,10.71,11.57,11.57,0,0,1-8.06-4.12c-.38-.46-.84-.85-1.26-1.28q-11.21-11.34-22.41-22.67Q340.06,467.29,334,461t-12.23-12.49l-12.24-12.49-12.24-12.48c-4.05-4.13-8.12-8.25-12.15-12.41a44.69,44.69,0,0,1-4.61-5.13,12.45,12.45,0,0,1,8.19-19.49,11.93,11.93,0,0,1,10.81,3.39q4.93,4.9,9.83,9.84c4.3,4.35,8.56,8.72,12.84,13.08q5.65,5.77,11.31,11.55,6.57,6.72,13.17,13.42,5.87,6,11.72,12c.69.71,1.31,1.48,2.07,2.34l7.19-7.54.34-.34c4.36-4.45,8.73-8.88,13.08-13.34,2.46-2.51,4.89-5,7.33-7.56,1.82-1.89,3.62-3.81,5.45-5.69,2.89-3,5.82-5.92,8.67-8.94A55.2,55.2,0,0,0,416,384.31a55.46,55.46,0,0,0-1.82-32.51,51.13,51.13,0,0,0-8-14.36,55.11,55.11,0,0,0-17.27-14.61,56.15,56.15,0,0,0-17.2-5.82,51.72,51.72,0,0,0-12.1-.62A53.33,53.33,0,0,0,343.33,320a55.62,55.62,0,0,0-13.23,7.45,98,98,0,0,0-14.18,13.66c-3.77,4.3-7.82,8.28-11.82,12.32-12.15,12.28-24.41,24.45-36.61,36.68a13.48,13.48,0,0,1-7.68,4.32,12.48,12.48,0,0,1-10-2.51,12.14,12.14,0,0,1-4.68-10.35,11.57,11.57,0,0,1,3.39-8.08q15.6-15.71,31.28-31.32c.17-.17.37-.3.63-.51-3.76-3.76-7.26-7.5-11-11a54.32,54.32,0,0,0-25-13.12,51.81,51.81,0,0,0-15-1.22,55.31,55.31,0,0,0-17.49,4,53.38,53.38,0,0,0-13.75,8.14,54.88,54.88,0,0,0-10.08,10.73,49.24,49.24,0,0,0-7.65,15.59,73.61,73.61,0,0,0-2.1,10.6,50,50,0,0,0-.25,9.55,52.94,52.94,0,0,0,4.18,17.21A56.79,56.79,0,0,0,193.34,409c9.66,9.74,19.37,19.42,29.14,29.2,1.9-1.91,3.86-3.72,5.64-5.69,4-4.47,11.65-4.94,16.35-1.46a12,12,0,0,1,5.07,9,12.79,12.79,0,0,1-2.18,8.46,7.24,7.24,0,0,1-.9,1.09q-16.58,16.59-33.14,33.2a12.6,12.6,0,0,1-9.62,4,12,12,0,0,1-8.49-3.58,12.61,12.61,0,0,1-.07-17.69c3.23-3.16,6.4-6.38,9.8-9.78a9.61,9.61,0,0,1-1.15-.87c-10-10-20.08-19.95-30-30.06a67.46,67.46,0,0,1-10.33-14.07,79.43,79.43,0,0,1-6.74-15.17A90.44,90.44,0,0,1,153.66,382a82.62,82.62,0,0,1-.59-16.55,71.91,71.91,0,0,1,3.24-17.81,83.28,83.28,0,0,1,5.61-13.73,65.4,65.4,0,0,1,8.35-12.7,117.43,117.43,0,0,1,8.07-8.75,74.76,74.76,0,0,1,13.6-10.17,78.09,78.09,0,0,1,16.77-7.44,87.29,87.29,0,0,1,13.2-2.9,78.6,78.6,0,0,1,15.09-.62,68.28,68.28,0,0,1,18.63,3.35,116,116,0,0,1,12.47,4.9,56.35,56.35,0,0,1,13.13,8.3c5.69,5,11.17,10.18,16.79,15.34,2.63-2.64,5.42-5.51,8.28-8.29a83.83,83.83,0,0,1,12.91-10.56A76.09,76.09,0,0,1,346.8,293a98.22,98.22,0,0,1,10.39-1.41,71.68,71.68,0,0,1,10.15-.22c3.56.2,7.1.86,10.64,1.35a61.65,61.65,0,0,1,12.59,3.39,77.82,77.82,0,0,1,14.7,7.18,79.55,79.55,0,0,1,15.32,12.47A78.75,78.75,0,0,1,439,346.87a65,65,0,0,1,2.82,12.61c.31,3.07.57,6.15.71,9.23A65.68,65.68,0,0,1,442.55,376.77Z" transform="translate(-107.28 -229.89)"/><path class="cls-2" d="M366.09,507.13c.13,5.87-4.57,10.87-10.75,11.71a12,12,0,0,1-10.51-3.49c-10.47-10.51-21-21-31.43-31.51a11.58,11.58,0,0,1-3.11-10.12,11.8,11.8,0,0,1,5.14-8.54,12.2,12.2,0,0,1,9.06-2.12,13.15,13.15,0,0,1,7.63,4.12q15,15.15,30.18,30.2A12.49,12.49,0,0,1,366.09,507.13Z" transform="translate(-107.28 -229.89)"/><path class="cls-2" d="M335.36,525.87c-4.24,6.12-13.13,7.14-18.32,2.4-4.44-4.06-8.63-8.41-12.93-12.64a4.62,4.62,0,0,1-.42-.53l-2.27,2.09c1,1,1.94,1.87,2.85,2.81a12.49,12.49,0,0,1-7.52,21,12.6,12.6,0,0,1-11.28-4.41c-.45-.5-1-1-1.44-1.44,0,0-.12-.09-.58-.54a4.37,4.37,0,0,1-.63,1.17c-3.42,3.47-6.88,6.92-10.33,10.37a12.77,12.77,0,0,1-16.36,1.5,12.42,12.42,0,0,1-3.25-17,15.47,15.47,0,0,1,2-2.48q19.91-20,39.84-39.89a12.58,12.58,0,0,1,15.66-1.49,15.89,15.89,0,0,1,2.39,1.93q10.55,10.5,21,21A12.69,12.69,0,0,1,335.36,525.87Z" transform="translate(-107.28 -229.89)"/><path class="cls-2" d="M294.37,483.47q-23,22.93-45.9,45.89A12.59,12.59,0,1,1,230.21,512q23.68-23.73,47.4-47.43a11.86,11.86,0,0,1,7.57-3.42,12.49,12.49,0,0,1,10,3.47,11.6,11.6,0,0,1,3.49,6.8C299.47,476.26,297.72,480.12,294.37,483.47Z" transform="translate(-107.28 -229.89)"/><path class="cls-2" d="M276.69,460.13q-23.52,23.44-47,47a12.52,12.52,0,1,1-17.6-17.82q23.48-23.49,46.95-47a12.53,12.53,0,1,1,17.61,17.82Z" transform="translate(-107.28 -229.89)"/><path class="cls-2" d="M442.55,376.77a82.6,82.6,0,0,1-2.81,15.88,80.09,80.09,0,0,1-5.31,13.83,66.69,66.69,0,0,1-7.79,12.5c-2.36,2.92-4.92,5.69-7.47,8.46-2.35,2.55-4.81,5-7.22,7.49l-7,7.22-7.15,7.4q-3.63,3.74-7.24,7.48c-2.3,2.38-4.61,4.75-6.89,7.14-1.84,1.93-3.66,3.89-5.53,5.88.26.26.55.57.84.88,3.2,3.28,6.5,6.48,9.58,9.88a12,12,0,0,1,3,10.06,12.46,12.46,0,0,1-13.61,10.71,11.57,11.57,0,0,1-8.06-4.12c-.38-.46-.84-.85-1.26-1.28q-11.21-11.34-22.41-22.67Q340.06,467.29,334,461t-12.23-12.49l-12.24-12.49-12.24-12.48c-4.05-4.13-8.12-8.25-12.15-12.41a44.69,44.69,0,0,1-4.61-5.13,12.45,12.45,0,0,1,8.19-19.49,11.93,11.93,0,0,1,10.81,3.39q4.93,4.9,9.83,9.84c4.3,4.35,8.56,8.72,12.84,13.08q5.65,5.77,11.31,11.55,6.57,6.72,13.17,13.42,5.87,6,11.72,12c.69.71,1.31,1.48,2.07,2.34l7.19-7.54.34-.34c4.36-4.45,8.73-8.88,13.08-13.34,2.46-2.51,4.89-5,7.33-7.56,1.82-1.89,3.62-3.81,5.45-5.69,2.89-3,5.82-5.92,8.67-8.94A55.2,55.2,0,0,0,416,384.31a55.46,55.46,0,0,0-1.82-32.51,51.13,51.13,0,0,0-8-14.36,55.11,55.11,0,0,0-17.27-14.61,56.15,56.15,0,0,0-17.2-5.82,51.72,51.72,0,0,0-12.1-.62A53.33,53.33,0,0,0,343.33,320a55.62,55.62,0,0,0-13.23,7.45,98,98,0,0,0-14.18,13.66c-3.77,4.3-7.82,8.28-11.82,12.32-12.15,12.28-24.41,24.45-36.61,36.68a13.48,13.48,0,0,1-7.68,4.32,12.48,12.48,0,0,1-10-2.51,12.14,12.14,0,0,1-4.68-10.35,11.57,11.57,0,0,1,3.39-8.08q15.6-15.71,31.28-31.32c.17-.17.37-.3.63-.51-3.76-3.76-7.26-7.5-11-11a54.32,54.32,0,0,0-25-13.12,51.81,51.81,0,0,0-15-1.22,55.31,55.31,0,0,0-17.49,4,53.38,53.38,0,0,0-13.75,8.14,54.88,54.88,0,0,0-10.08,10.73,49.24,49.24,0,0,0-7.65,15.59,73.61,73.61,0,0,0-2.1,10.6,50,50,0,0,0-.25,9.55,52.94,52.94,0,0,0,4.18,17.21A56.79,56.79,0,0,0,193.34,409c9.66,9.74,19.37,19.42,29.14,29.2,1.9-1.91,3.86-3.72,5.64-5.69,4-4.47,11.65-4.94,16.35-1.46a12,12,0,0,1,5.07,9,12.79,12.79,0,0,1-2.18,8.46,7.24,7.24,0,0,1-.9,1.09q-16.58,16.59-33.14,33.2a12.6,12.6,0,0,1-9.62,4,12,12,0,0,1-8.49-3.58,12.61,12.61,0,0,1-.07-17.69c3.23-3.16,6.4-6.38,9.8-9.78a9.61,9.61,0,0,1-1.15-.87c-10-10-20.08-19.95-30-30.06a67.46,67.46,0,0,1-10.33-14.07,79.43,79.43,0,0,1-6.74-15.17A90.44,90.44,0,0,1,153.66,382a82.62,82.62,0,0,1-.59-16.55,71.91,71.91,0,0,1,3.24-17.81,83.28,83.28,0,0,1,5.61-13.73,65.4,65.4,0,0,1,8.35-12.7,117.43,117.43,0,0,1,8.07-8.75,74.76,74.76,0,0,1,13.6-10.17,78.09,78.09,0,0,1,16.77-7.44,87.29,87.29,0,0,1,13.2-2.9,78.6,78.6,0,0,1,15.09-.62,68.28,68.28,0,0,1,18.63,3.35,116,116,0,0,1,12.47,4.9,56.35,56.35,0,0,1,13.13,8.3c5.69,5,11.17,10.18,16.79,15.34,2.63-2.64,5.42-5.51,8.28-8.29a83.83,83.83,0,0,1,12.91-10.56A76.09,76.09,0,0,1,346.8,293a98.22,98.22,0,0,1,10.39-1.41,71.68,71.68,0,0,1,10.15-.22c3.56.2,7.1.86,10.64,1.35a61.65,61.65,0,0,1,12.59,3.39,77.82,77.82,0,0,1,14.7,7.18,79.55,79.55,0,0,1,15.32,12.47A78.75,78.75,0,0,1,439,346.87a65,65,0,0,1,2.82,12.61c.31,3.07.57,6.15.71,9.23A65.68,65.68,0,0,1,442.55,376.77Z" transform="translate(-107.28 -229.89)"/></svg>