<svg id="Layer_1" data-name="Layer 1" xmlns="http://www.w3.org/2000/svg" viewBox="0 0 381.08 381.36"><defs><style>.cls-1{fill:#fff;}.cls-2{fill:#900;}</style></defs><path class="cls-1" d="M488.36,430.77v-20.4a3.58,3.58,0,0,1-.27-.82c-.34-4.14-.5-8.3-1-12.41a187.84,187.84,0,0,0-4.79-25.09,167.92,167.92,0,0,0-8-23.73c-2.39-5.52-4.87-11-7.62-16.38a158.89,158.89,0,0,0-13.95-22.54c-2.8-3.76-5.61-7.51-8.55-11.15-2-2.47-4.17-4.78-6.34-7.1s-4.59-5-7.07-7.29c-4.1-3.79-8.31-7.46-12.52-11.12a138.67,138.67,0,0,0-17.05-12.47c-4.31-2.72-8.76-5.25-13.2-7.78a183,183,0,0,0-41.18-16.3c-4.83-1.19-9.68-2.33-14.56-3.3-3.38-.67-6.83-1.07-10.26-1.51-3.6-.45-7.2-.82-10.81-1.18-.87-.09-1.76,0-2.64,0a5.79,5.79,0,0,1-1.05-.27H288.08a3.58,3.58,0,0,1-.82.27c-4.48.41-9,.76-13.45,1.21a158,158,0,0,0-22.21,4.08,152.36,152.36,0,0,0-23,7.39c-6.25,2.66-12.52,5.33-18.59,8.38-5.11,2.58-10,5.58-14.89,8.63-4.25,2.68-8.37,5.58-12.4,8.59-3.35,2.5-6.58,5.17-9.69,8-4.32,3.88-8.63,7.79-12.65,12s-7.69,8.43-11.22,12.89c-3.88,4.9-7.6,10-11.05,15.16-3.08,4.64-5.74,9.57-8.52,14.41a150.93,150.93,0,0,0-8.9,19,170.42,170.42,0,0,0-7.36,22.57c-1.11,4.53-2.17,9.08-3.07,13.66-.66,3.39-1.11,6.83-1.48,10.27-.5,4.64-1,9.28-1.18,13.94q-.37,9.63-.23,19.27a97.51,97.51,0,0,0,1,12.18c.93,6.56,2.08,13.11,3.29,19.63a134.73,134.73,0,0,0,5.79,21q2.88,8,6.25,15.88a170.22,170.22,0,0,0,17,30.33c3,4.25,6.14,8.39,9.37,12.45,2.54,3.18,5.26,6.23,8,9.22,2.92,3.17,5.84,6.36,9,9.24,4.47,4.06,9.08,8,13.84,11.71,4.61,3.6,9.41,7,14.3,10.21,4,2.62,8.13,5,12.3,7.22,3.76,2.06,7.6,4,11.52,5.75,4.88,2.16,9.8,4.27,14.85,6,6.6,2.22,13.3,4.19,20,5.94,4.7,1.22,9.52,2,14.32,2.76,4,.64,8,1,12,1.46,2.2.23,4.42.32,6.62.5a3.58,3.58,0,0,1,.82.27H308a3.67,3.67,0,0,1,.81-.27c4.14-.34,8.3-.48,12.41-1a195.85,195.85,0,0,0,30.49-6.34,192.1,192.1,0,0,0,23.3-8.54A184.19,184.19,0,0,0,399.43,582a168.48,168.48,0,0,0,17.37-12.4c3.47-2.88,6.91-5.79,10.24-8.83,3.18-2.91,6.32-5.87,9.24-9,3.59-3.89,7.12-7.86,10.36-12,4.11-5.31,8-10.79,11.79-16.36a136.73,136.73,0,0,0,7.1-12.1c2.54-4.76,5-9.58,7.15-14.51A153,153,0,0,0,481.12,473c1.4-5.46,2.76-10.94,4-16.46.69-3.18,1.12-6.42,1.53-9.66.55-4.26,1-8.53,1.44-12.81.09-.79,0-1.59,0-2.39A4.57,4.57,0,0,1,488.36,430.77ZM202.93,380.84a5.88,5.88,0,0,1,1.19,0h37.42c12.27,0,24.55,0,36.82,0a11.35,11.35,0,0,1,9.33,4.61A12.1,12.1,0,0,1,289,399a11.38,11.38,0,0,1-9.82,6.63c-2.38.16-4.77.24-7.15.24q-33.1,0-66.2,0c-6.12,0-10.56-3.06-12.49-8.56A12.51,12.51,0,0,1,202.93,380.84Zm-13.38,39a11.36,11.36,0,0,1,8.57-3.92q43.42-.06,86.83,0a11.45,11.45,0,0,1,7.68,3.16,12,12,0,0,1,4.09,10.88,11.71,11.71,0,0,1-7.48,9.95,14.86,14.86,0,0,1-5.51,1c-14.07.08-28.14,0-42.21,0-14.32,0-28.63,0-42.94,0a12.05,12.05,0,0,1-12-9.4A12.31,12.31,0,0,1,189.55,419.79Zm3.71,56.37a13.29,13.29,0,0,1-10-3.94,13,13,0,0,1-2.43-13.54,11.89,11.89,0,0,1,8.78-7.34,7.62,7.62,0,0,1,1.5-.2h44.12c14.39,0,28.77,0,43.16,0a11.37,11.37,0,0,1,9.33,4.6A12.06,12.06,0,0,1,289,469.27a11.41,11.41,0,0,1-10.29,6.66c-2.63.09-5.25.23-7.87.23Q232,476.19,193.26,476.16ZM415.67,452c-.18,4.12-.83,8.23-1.36,12.33A78.28,78.28,0,0,1,410,480.78a82.72,82.72,0,0,1-8.45,17.36c-2.47,3.78-5,7.57-7.79,11.09a101.75,101.75,0,0,1-9,9.72,104.74,104.74,0,0,1-15.66,12.38,116.48,116.48,0,0,1-41.16,16.54,92.28,92.28,0,0,1-11.11,1.46c-5.19.34-10.41.48-15.62.5q-26.55.09-53.12,0A45.39,45.39,0,0,1,232,546.51a50,50,0,0,1-12.53-7,54.23,54.23,0,0,1-9-8.79,50,50,0,0,1-5.95-9.2A44.41,44.41,0,0,1,200,508.2a73.37,73.37,0,0,1-.94-10.13,12.1,12.1,0,0,1,12.05-12.14c14.38.07,28.76.09,43.13.29a11.19,11.19,0,0,1,8.75,4.45c3.39,4.16,3.69,8.76,1.7,13.43A11.47,11.47,0,0,1,256,511a17.29,17.29,0,0,1-3.3.25c-8.32,0-16.63,0-25.24,0a40.31,40.31,0,0,0,2.68,3.88c4.48,5.13,9.93,8.6,16.82,9.48a22.34,22.34,0,0,0,2.83.23c19.87,0,39.73.09,59.6-.06a98.75,98.75,0,0,0,12.44-1.35,76.43,76.43,0,0,0,15.44-4.09A80.24,80.24,0,0,0,359.84,507a118.12,118.12,0,0,0,10.4-9.22,67.16,67.16,0,0,0,10.39-13.59,71.43,71.43,0,0,0,6.73-14.91A57,57,0,0,0,390.19,456a109.65,109.65,0,0,0,.44-12.15A54,54,0,0,0,388,428.78a122.87,122.87,0,0,0-4.79-12.28,61.84,61.84,0,0,0-9.78-14.84c-1.67-1.9-3.37-3.8-5.15-5.61a61.37,61.37,0,0,0-11-9.11A131.08,131.08,0,0,0,345,379.82a79.34,79.34,0,0,0-21.62-7.07c-3.56-.62-7.16-1.05-10.76-1.43a60.78,60.78,0,0,0-6.19-.26c-17.11,0-34.21,0-51.32,0a12.66,12.66,0,0,1-12.65-10.34,5.43,5.43,0,0,1,0-1.07V302.75a12.19,12.19,0,0,1,7.41-10.52c4.45-1.67,8.67-1.4,12.53,1.47a11.09,11.09,0,0,1,4.84,8.45c.15,2.58.24,5.17.24,7.76,0,11.52,0,23,0,34.55V346h1.63q19.61,0,39.22,0a80.76,80.76,0,0,1,14.4,1.21c4.36.8,8.76,1.48,13,2.68,5.3,1.49,10.55,3.28,15.69,5.29a95.23,95.23,0,0,1,20.14,11c3.31,2.34,6.46,4.93,9.56,7.54a84.89,84.89,0,0,1,6.81,6.33,104.52,104.52,0,0,1,14.12,18.48,90.4,90.4,0,0,1,9.79,22.4c1.21,4.37,2,8.86,2.89,13.32A76.07,76.07,0,0,1,415.67,452Z" transform="translate(-107.28 -229.89)"/><path class="cls-2" d="M289,469.27a11.41,11.41,0,0,1-10.29,6.66c-2.63.09-5.25.23-7.87.23q-38.79,0-77.57,0a13.29,13.29,0,0,1-10-3.94,13,13,0,0,1-2.43-13.54,11.89,11.89,0,0,1,8.78-7.34,7.62,7.62,0,0,1,1.5-.2h44.12c14.39,0,28.77,0,43.16,0a11.37,11.37,0,0,1,9.33,4.6A12.06,12.06,0,0,1,289,469.27Z" transform="translate(-107.28 -229.89)"/><path class="cls-2" d="M296.72,429.91a11.71,11.71,0,0,1-7.48,9.95,14.86,14.86,0,0,1-5.51,1c-14.07.08-28.14,0-42.21,0-14.32,0-28.63,0-42.94,0a12.05,12.05,0,0,1-12-9.4,12.31,12.31,0,0,1,2.92-11.69,11.36,11.36,0,0,1,8.57-3.92q43.42-.06,86.83,0a11.45,11.45,0,0,1,7.68,3.16A12,12,0,0,1,296.72,429.91Z" transform="translate(-107.28 -229.89)"/><path class="cls-2" d="M289,399a11.38,11.38,0,0,1-9.82,6.63c-2.38.16-4.77.24-7.15.24q-33.1,0-66.2,0c-6.12,0-10.56-3.06-12.49-8.56a12.51,12.51,0,0,1,9.61-16.43,5.88,5.88,0,0,1,1.19,0h37.42c12.27,0,24.55,0,36.82,0a11.35,11.35,0,0,1,9.33,4.61A12.1,12.1,0,0,1,289,399Z" transform="translate(-107.28 -229.89)"/><path class="cls-2" d="M415.67,452c-.18,4.12-.83,8.23-1.36,12.33A78.28,78.28,0,0,1,410,480.78a82.72,82.72,0,0,1-8.45,17.36c-2.47,3.78-5,7.57-7.79,11.09a101.75,101.75,0,0,1-9,9.72,104.74,104.74,0,0,1-15.66,12.38,116.48,116.48,0,0,1-41.16,16.54,92.28,92.28,0,0,1-11.11,1.46c-5.19.34-10.41.48-15.62.5q-26.55.09-53.12,0A45.39,45.39,0,0,1,232,546.51a50,50,0,0,1-12.53-7,54.23,54.23,0,0,1-9-8.79,50,50,0,0,1-5.95-9.2A44.41,44.41,0,0,1,200,508.2a73.37,73.37,0,0,1-.94-10.13,12.1,12.1,0,0,1,12.05-12.14c14.38.07,28.76.09,43.13.29a11.19,11.19,0,0,1,8.75,4.45c3.39,4.16,3.69,8.76,1.7,13.43A11.47,11.47,0,0,1,256,511a17.29,17.29,0,0,1-3.3.25c-8.32,0-16.63,0-25.24,0a40.31,40.31,0,0,0,2.68,3.88c4.48,5.13,9.93,8.6,16.82,9.48a22.34,22.34,0,0,0,2.83.23c19.87,0,39.73.09,59.6-.06a98.75,98.75,0,0,0,12.44-1.35,76.43,76.43,0,0,0,15.44-4.09A80.24,80.24,0,0,0,359.84,507a118.12,118.12,0,0,0,10.4-9.22,67.16,67.16,0,0,0,10.39-13.59,71.43,71.43,0,0,0,6.73-14.91A57,57,0,0,0,390.19,456a109.65,109.65,0,0,0,.44-12.15A54,54,0,0,0,388,428.78a122.87,122.87,0,0,0-4.79-12.28,61.84,61.84,0,0,0-9.78-14.84c-1.67-1.9-3.37-3.8-5.15-5.61a61.37,61.37,0,0,0-11-9.11A131.08,131.08,0,0,0,345,379.82a79.34,79.34,0,0,0-21.62-7.07c-3.56-.62-7.16-1.05-10.76-1.43a60.78,60.78,0,0,0-6.19-.26c-17.11,0-34.21,0-51.32,0a12.66,12.66,0,0,1-12.65-10.34,5.43,5.43,0,0,1,0-1.07V302.75a12.19,12.19,0,0,1,7.41-10.52c4.45-1.67,8.67-1.4,12.53,1.47a11.09,11.09,0,0,1,4.84,8.45c.15,2.58.24,5.17.24,7.76,0,11.52,0,23,0,34.55V346h1.63q19.61,0,39.22,0a80.76,80.76,0,0,1,14.4,1.21c4.36.8,8.76,1.48,13,2.68,5.3,1.49,10.55,3.28,15.69,5.29a95.23,95.23,0,0,1,20.14,11c3.31,2.34,6.46,4.93,9.56,7.54a84.89,84.89,0,0,1,6.81,6.33,104.52,104.52,0,0,1,14.12,18.48,90.4,90.4,0,0,1,9.79,22.4c1.21,4.37,2,8.86,2.89,13.32A76.07,76.07,0,0,1,415.67,452Z" transform="translate(-107.28 -229.89)"/></svg>